<?xml version="1.0" encoding="utf-8" ?>
<svg xmlns="http://www.w3.org/2000/svg" xmlns:xlink="http://www.w3.org/1999/xlink" width="492" height="492">
	<path fill="#900000" transform="scale(0.961076 0.961076)" d="M359.486 253.066C364.534 251.326 395.442 265.489 401.805 268.308L410.578 272.417C412.307 273.293 413.949 273.996 415.402 275.325C416.909 280.437 417.822 291.782 416.756 297.382C415.115 297.199 412.5 298.175 411.637 297.986C410.728 297.786 410.396 296.841 409.375 297.231C409.287 297.852 409.592 298.276 409.875 298.801L409.625 299.736C409.122 299.731 409.372 299.789 408.885 299.526C408.308 298.752 407.654 298.353 406.842 297.847C405.375 296.91 403.675 296.182 402.118 295.392L402.375 294.474C404.654 286.447 393.973 278.871 388.17 275.632L374.895 268.774C371.166 266.975 359.307 262.379 358.939 257.893L359.899 255.903C360.335 254.633 360.006 254.253 359.486 253.066Z"/>
	<path fill="#B00" transform="scale(0.961076 0.961076)" d="M165.307 80.0463L166.837 77.4634L162.12 53.1447C168.878 43.2472 195.605 25.0557 205.93 21.1466C206.069 23.1736 206.938 25.0617 207.51 27L211.104 40.5216C211.511 42.206 212.307 44.5914 212.209 46.3034C194.649 54.1047 180.402 62.7206 168.821 78.7998L168.76 79.4838C167.971 79.5557 167.01 79.8142 166.331 79.4137L165.307 80.0463Z"/>
	<defs>
		<linearGradient id="gradient_0" gradientUnits="userSpaceOnUse" x1="367.18137" y1="186.22609" x2="250.54854" y2="117.9902">
			<stop offset="0" stop-color="#590000"/>
			<stop offset="1" stop-color="#AC0000"/>
		</linearGradient>
	</defs>
	<path fill="url(#gradient_0)" transform="scale(0.961076 0.961076)" d="M306.896 21.5536C318.257 25.3049 343.6 43.7791 349.386 51.971L346.556 68.375C346.04 71.6067 345.906 75.6697 344.632 78.6697C349.964 86.4058 351.137 96.2102 352.75 105.25L358.121 145.889L359.913 166.25C360.817 172.853 360.453 176.049 358.332 182.215L338.652 235.216L336.95 234.869C334.095 234.35 332.944 232.716 329.913 234.744C320.013 241.37 299.702 271.421 289.51 271.241C290.056 270.18 288.745 266.221 288.554 264.815L285.705 252.201C287.879 252.277 290.829 252.013 292.5 253.625L292.79 253.296C293.123 252.927 293.461 252.702 293.893 252.455L311.34 226.586C313.047 223.947 316.794 220.356 316.469 217.021L349.076 173.16C354.633 165.606 354.968 166.275 353.012 157.125L348.413 138.992C347.217 134.625 346.123 131.375 344.744 127.21L342.437 118.247C342.062 116.841 341.417 115.489 341.191 114.055L340.992 113.968C340.536 110.595 340.229 107.583 340.216 104.154L340.266 102.829L340.768 94.4458C340.809 90.457 342.094 84.528 343.244 80.8005L343.636 79.125C340.453 76.3811 338.085 72.7991 335.282 69.6868C328.176 61.7968 319.845 54.9665 310.426 50.0288L301.276 44.9059C301.049 42.6378 302.318 39.2698 302.954 37.0617L305.23 29.1064C305.832 27.2654 307.616 23.3349 306.896 21.5536Z"/>
	<path fill="#B00" transform="scale(0.961076 0.961076)" d="M340.266 102.829L340.96 102.128C341.685 103.658 341.357 112.308 341.211 114.055L340.992 113.968C340.536 110.595 340.229 107.583 340.216 104.154L340.266 102.829Z"/>
	<defs>
		<linearGradient id="gradient_1" gradientUnits="userSpaceOnUse" x1="289.54346" y1="252.76024" x2="286.31976" y2="262.26016">
			<stop offset="0" stop-color="#1F0000"/>
			<stop offset="1" stop-color="#410000"/>
		</linearGradient>
	</defs>
	<path fill="url(#gradient_1)" transform="scale(0.961076 0.961076)" d="M285.705 252.201C287.879 252.277 290.829 252.013 292.5 253.625L292.79 253.296C293.123 252.927 293.461 252.702 293.893 252.455C291.583 256.202 289.983 262.873 288.554 264.815L285.705 252.201Z"/>
	<path fill="#420000" transform="scale(0.961076 0.961076)" d="M90.0303 374.654C83.1803 375.697 76.0493 375.288 69.2266 375.292L25.4345 375.342C14.083 375.415 13.7538 373.715 13.736 360.812C13.6828 322.321 35.7377 289.98 72.8579 277.465C75.7997 281.55 88.802 301.902 94.2882 301.492L94.7326 301.437C96.9591 304.548 94.1529 330.455 96.3294 333.93C96.6434 335.969 96.9542 337.891 97.6109 339.849C95.5761 339.837 94.7823 340.183 94.224 342.25L94.1217 342.619C93.2689 345.769 93.0745 349.338 92.6127 352.584L90.3153 372.13C90.2613 372.94 90.3026 373.885 90.0303 374.654Z"/>
	<path fill="#011B1F" transform="scale(0.961076 0.961076)" d="M411.429 350.765L411.58 350.574C412.072 349.94 412.296 349.495 412.503 348.722C415.758 352.718 415.772 372.141 423.249 375.968L451.1 447.88C441.075 455.681 429.143 461.09 417.558 466.147L398.242 474.381C381.056 480.899 356.955 487.644 339.195 491.27L340.125 489.914C346.787 484.665 351.754 472.303 355.486 464.816L401.11 375.293L411.429 350.765Z"/>
	<path fill="#420000" transform="scale(0.961076 0.961076)" d="M425.627 297.096C431.403 291.063 435.463 284.027 440.512 277.452L440.694 277.546C444.326 279.404 448.111 280.811 451.7 282.815C477.322 297.121 495.497 319.383 498.202 349.725C498.607 354.26 498.418 358.965 498.419 363.52C498.419 368.408 498.945 373.649 493.004 375.251L491.324 375.572C489.668 375.827 488.009 375.552 486.35 375.443L429.332 375.321C427.676 375.332 424.734 375.083 423.249 375.862C415.772 372.141 415.758 352.718 412.503 348.722C412.296 349.495 412.072 349.94 411.58 350.574L411.429 350.765C411.615 349.4 412.158 348.088 412.48 346.749L412.623 346.125C412.783 345.687 412.859 345.687 412.874 345.156L413.123 343.625C413.258 343.006 413.385 342.732 413.377 342.033L413.623 340.375C413.834 339.582 413.884 339.107 413.873 338.25L414.114 337.875C414.074 336.238 414.319 333.771 414.623 332.125L415.09 329.375C416.364 322.092 416.096 309.754 410.027 304.949C408.924 304.075 407.462 302.81 406.712 301.625L406.8 301.188C406.94 300.424 406.914 299.765 406.437 299.125L406.842 297.847C407.654 298.353 408.308 298.752 408.885 299.526C409.372 299.789 409.122 299.731 409.625 299.736L409.875 298.801C409.592 298.276 409.287 297.852 409.375 297.231C410.396 296.841 410.728 297.786 411.637 297.986C412.5 298.175 415.115 297.199 416.639 297.382C420.223 297.778 422.385 299.162 425.627 297.096Z"/>
	<path fill="#230205" transform="scale(0.961076 0.961076)" d="M409.875 298.801C409.592 298.276 409.287 297.852 409.375 297.231C410.396 296.841 410.728 297.786 411.637 297.986C412.5 298.175 415.115 297.199 416.639 297.382C420.223 297.778 422.385 299.162 425.627 297.096C425.716 299.989 423.69 301.311 422.419 303.709C422.33 303.876 419.074 312.118 420.438 308.438L420.688 307.422C420.799 306.866 420.685 307.381 420.938 306.688L421.492 304.875C422.042 303.227 423.12 301.698 424.062 300.251L424.281 300.005C424.54 299.709 424.623 299.491 424.75 299.125L424.688 298.624L423.591 299.477C422.699 299.333 422.019 299.647 421.125 299.369L419.489 298.959C419.047 298.844 418.626 298.814 418.173 298.775L418.75 298.375C416.114 297.467 416.878 299.853 416.5 301.625L416.621 301.854C416.929 302.641 416.982 305.193 416.676 305.977L416.661 306.521C416.923 307.657 416.565 309.356 415.988 310.344L415.627 310.25C415.627 309.084 416.369 307.608 415.625 306.5L416.125 305.75C415.311 305.738 414.648 305.758 413.877 305.498L413.548 305.413C412.063 305.012 411.409 304.3 410.381 303.247L410.314 302.613L408.885 299.526C409.372 299.789 409.122 299.731 409.625 299.736L409.875 298.801Z"/>
	<path fill="#4F0103" transform="scale(0.961076 0.961076)" d="M409.875 298.801C410.065 299.276 410.105 299.639 410.125 300.148C411.323 300.918 415.896 300.378 416.153 301.534C417.605 308.046 413.093 305.726 410.314 302.613L408.885 299.526C409.372 299.789 409.122 299.731 409.625 299.736L409.875 298.801Z"/>
	<path fill="#011B1F" transform="scale(0.961076 0.961076)" d="M97.6109 339.849C99.1964 344.43 101.216 348.882 103.11 353.344L117.782 384.834L161.827 472.594C166.799 481.901 167.56 484.808 175.821 491.33L163.982 489.125C135.27 483.824 81.7613 463.698 61.1093 447.12C63.6875 442.181 65.4911 436.49 67.5602 431.294L80.7586 396.999C83.6335 389.506 86.4152 381.867 89.934 374.654C90.3026 373.885 90.2613 372.94 90.3153 372.13L92.6127 352.584C93.0745 349.338 93.2689 345.769 94.1217 342.619L94.224 342.25C94.7823 340.183 95.5761 339.837 97.6109 339.849Z"/>
	<defs>
		<linearGradient id="gradient_2" gradientUnits="userSpaceOnUse" x1="324.48206" y1="135.98697" x2="156.4391" y2="164.94595">
			<stop offset="0" stop-color="#B6B803"/>
			<stop offset="1" stop-color="#EAD801"/>
		</linearGradient>
	</defs>
	<path fill="url(#gradient_2)" transform="scale(0.961076 0.961076)" d="M205.93 21.1466C240.494 10.8708 272.754 10.6244 306.896 21.5536C307.616 23.3349 305.832 27.2654 305.23 29.1064L302.954 37.0617C302.318 39.2698 301.049 42.6378 301.276 44.9059L310.426 50.0288C319.845 54.9665 328.176 61.7968 335.282 69.6868C338.085 72.7991 340.453 76.3811 343.636 79.125L343.244 80.8005C342.094 84.528 340.809 90.457 340.768 94.4458L340.266 102.829L340.211 104.154C340.229 107.583 340.536 110.595 340.992 113.968L341.191 114.055C341.417 115.489 342.062 116.841 342.437 118.247L344.744 127.21C346.123 131.375 347.217 134.625 348.413 138.992L353.012 157.125C354.968 166.275 354.633 165.606 349.076 173.16L316.469 217.021C316.794 220.356 313.047 223.947 311.34 226.586L293.893 252.455C293.461 252.702 293.123 252.927 292.79 253.296L292.5 253.625C290.829 252.013 287.879 252.277 285.705 252.201L288.554 264.815C288.745 266.221 290.056 270.18 289.51 271.241L288.795 270.942C284.693 271.19 280.412 270.918 276.293 270.894L231.857 270.883C228.238 270.88 220.992 272.076 218.232 269.559C213.458 268.056 198.503 251.158 194.578 247.064L175.793 230.025L175.227 229.327C174.062 229.627 173.424 230.265 172.379 230.664L171.573 227.93L158.835 193.662C151.683 180.085 151.843 172.983 152.607 158.914L155.555 125.196C157.007 112.832 159.616 91.3805 165.307 80.0463L166.331 79.4137C167.01 79.8142 167.971 79.5557 168.76 79.4838L168.821 78.7998C180.402 62.7206 194.649 54.1047 212.209 46.3034C212.307 44.5914 211.511 42.206 211.104 40.5216L207.51 27C206.938 25.0617 206.069 23.1736 205.93 21.1466Z"/>
	<path fill="white" transform="scale(0.961076 0.961076)" d="M168.885 124.633C169.832 122.004 171.021 119.54 172.909 117.463C173.959 118.899 175.248 120.174 176.634 121.285L176.908 121.501C188.57 132.217 217.892 139.301 232.785 143.994C245.64 148.337 236.775 161.789 228.742 166.726C217.534 167.075 199.49 162.215 189.161 158.454C184.296 156.682 182.328 156.456 179.537 151.969C174.351 143.632 171.351 134.069 168.885 124.633Z"/>
	<path fill="#9F9E02" transform="scale(0.961076 0.961076)" d="M310.104 50.0288C319.845 54.9665 328.176 61.7968 335.282 69.6868C338.085 72.7991 340.453 76.3811 343.636 79.125L343.244 80.8005C342.094 84.528 340.809 90.457 340.768 94.4458L340.266 102.829L340.211 104.154C340.229 107.583 340.536 110.595 340.992 113.968C340.247 116.936 338.223 117.949 335.881 119.693C327.044 126.978 317.154 131.267 306.611 135.459C305.833 129.174 309 112.616 309.372 105.114L310.104 50.0288Z"/>
	<path fill="#503500" transform="scale(0.961076 0.961076)" d="M340.768 94.4458L340.266 102.829L340.211 104.154C340.136 104.652 339.706 107.833 339.375 105.873L338.409 106.569C338.273 106.875 338.136 107.046 337.91 107.285L340.768 94.4458Z"/>
	<path fill="#7D3D00" transform="scale(0.961076 0.961076)" d="M337.91 107.285C338.136 107.046 338.273 106.875 338.409 106.569L339.375 105.873C339.706 107.833 340.136 104.652 340.211 104.154C340.229 107.583 340.536 110.595 340.992 113.968C340.247 116.936 338.223 117.949 335.881 119.693L335.327 118.875C335.11 115.47 336.308 110.422 337.91 107.285Z"/>
	<defs>
		<linearGradient id="gradient_3" gradientUnits="userSpaceOnUse" x1="153.34605" y1="180.76949" x2="203.44504" y2="172.34689">
			<stop offset="0" stop-color="#640000"/>
			<stop offset="1" stop-color="#BE0100"/>
		</linearGradient>
	</defs>
	<path fill="url(#gradient_3)" transform="scale(0.961076 0.961076)" d="M165.307 80.0463L166.331 79.4137C167.01 79.8142 167.971 79.5557 168.76 79.4838C170.187 81.6095 170.506 86.3274 170.957 88.9093L175.256 115.752C175.629 117.714 176.309 119.6 176.908 121.501L176.634 121.285C175.248 120.174 173.959 118.899 172.909 117.463C171.021 119.54 169.832 122.004 168.885 124.633C166.565 128.499 165.164 132.752 163.724 137L158.305 155.207C155.368 166.491 155.261 167.064 162.125 176.478C162.721 177.295 166.108 181.305 166.104 181.973L216.787 250.146C215.447 256.639 218.183 262.493 218.082 268.832L218.232 269.559C213.458 268.056 198.503 251.158 194.578 247.064L175.793 230.025L175.227 229.327C174.062 229.627 173.424 230.265 172.379 230.664L171.573 227.93L158.835 193.662C151.683 180.085 151.843 172.983 152.607 158.914L155.555 125.196C157.007 112.832 159.616 91.3805 165.307 80.0463Z"/>
	<path fill="#900000" transform="scale(0.961076 0.961076)" d="M171.573 227.93C173.482 228.854 173.413 227.339 175.227 229.327C174.062 229.627 173.424 230.265 172.379 230.664L171.573 227.93Z"/>
	<path fill="#B00" transform="scale(0.961076 0.961076)" d="M316.469 217.021C316.794 220.356 313.047 223.947 311.34 226.586L293.893 252.455C293.461 252.702 293.123 252.927 292.79 253.296L292.5 253.625C290.829 252.013 287.879 252.277 285.705 252.201L288.554 264.815C288.745 266.221 290.056 270.18 289.51 271.241L288.795 270.942C284.693 271.19 280.412 270.918 276.293 270.894L231.857 270.883C228.238 270.88 220.992 272.076 218.232 269.559L218.082 268.832C218.183 262.493 215.447 256.639 216.787 250.146L222.357 241.787C223.553 239.842 225.753 234.094 227.642 233.206L227.875 233.104C230.992 231.336 236.892 232.256 240.376 232.25L271.859 232.235C275.319 232.238 278.803 232.127 282.246 232.521C283.987 234.312 285.092 237.693 286.398 239.912C288.323 243.183 290.642 246.119 293.227 248.888C297.558 244.685 300.772 239.778 304.183 234.852L316.469 217.021Z"/>
	<path transform="scale(0.961076 0.961076)" d="M316.469 217.021C316.794 220.356 313.047 223.947 311.34 226.586L293.893 252.455C293.461 252.702 293.123 252.927 292.79 253.296L292.5 253.625C290.829 252.013 287.879 252.277 285.705 252.201C284.948 250.455 283.252 246.501 281.424 245.77L250.049 245.75C229.882 245.768 222.74 241.984 219.556 264.25C219.31 265.974 219.774 267.847 218.082 268.832C218.183 262.493 215.447 256.639 216.787 250.146L222.357 241.787C223.553 239.842 225.753 234.094 227.642 233.206L227.875 233.104C230.992 231.336 236.892 232.256 240.376 232.25L271.859 232.235C275.319 232.238 278.803 232.127 282.246 232.521C283.987 234.312 285.092 237.693 286.398 239.912C288.323 243.183 290.642 246.119 293.227 248.888C297.558 244.685 300.772 239.778 304.183 234.852L316.469 217.021Z"/>
	<path fill="#FEE801" transform="scale(0.961076 0.961076)" d="M168.76 79.4838L168.821 78.7998C180.402 62.7206 194.649 54.1047 212.209 46.3034C212.488 48.5102 213.22 50.6325 213.826 52.7662L224.692 89.3545C224.938 94.2958 226.035 99.2472 226.958 104.105L231.806 127.725C232.122 129.192 234.192 143.097 234.377 143.375L234.375 143.877C233.663 143.953 233.43 143.605 232.681 143.64L232.785 143.994C217.892 139.301 188.57 132.217 176.908 121.501C176.309 119.6 175.629 117.714 175.256 115.752L170.957 88.9093C170.506 86.3274 170.187 81.6095 168.76 79.4838Z"/>
	<defs>
		<linearGradient id="gradient_4" gradientUnits="userSpaceOnUse" x1="361.14572" y1="171.97708" x2="272.80179" y2="205.30159">
			<stop offset="0" stop-color="#959303"/>
			<stop offset="1" stop-color="#ADAE02"/>
		</linearGradient>
	</defs>
	<path fill="url(#gradient_4)" transform="scale(0.961076 0.961076)" d="M340.992 113.968L341.191 114.055C341.417 115.489 342.062 116.841 342.437 118.247L344.744 127.21C346.123 131.375 347.217 134.625 348.413 138.992L353.012 157.125C354.968 166.275 354.633 165.606 349.076 173.16L316.469 217.021L304.183 234.852C300.772 239.778 297.558 244.685 293.227 248.888C290.642 246.119 288.323 243.183 286.398 239.912C285.092 237.693 283.987 234.312 282.246 232.54L283.493 232.25C283.531 227.483 283.619 222.662 283.309 217.903L280.7 192.058C279.872 183.255 279.675 174.371 277.368 165.795L278.383 165.251C274.096 160.273 270.585 154.06 273.574 147.454C274.95 144.412 276.252 144.771 279.283 144.057L306.611 135.459C317.154 131.267 327.044 126.978 335.881 119.693C338.223 117.949 340.247 116.936 340.992 113.968Z"/>
	<path fill="white" transform="scale(0.961076 0.961076)" d="M340.992 113.968L341.191 114.055C341.417 115.489 342.062 116.841 342.437 118.247L344.744 127.21C336.635 139.272 337.023 152.728 321.734 159.396C314.459 162.569 284.358 171.244 278.383 165.251C274.096 160.273 270.585 154.06 273.574 147.454C274.95 144.412 276.252 144.771 279.283 144.057L306.611 135.459C317.154 131.267 327.044 126.978 335.881 119.693C338.223 117.949 340.247 116.936 340.992 113.968Z"/>
	<path fill="#420000" transform="scale(0.961076 0.961076)" d="M205.93 21.1466C240.494 10.8708 272.754 10.6244 306.896 21.5536C307.616 23.3349 305.832 27.2654 305.23 29.1064L302.954 37.0617C302.318 39.2698 301.049 42.6378 301.276 44.9059L295.57 64.5078C293.435 71.8618 291.075 83.7699 286.864 90.1852C272.326 89.2772 257.583 89.7755 243.015 89.7827L232.544 89.7843C229.93 89.7826 227.275 89.8539 224.692 89.4072L213.826 52.7662C213.22 50.6325 212.488 48.5102 212.209 46.3034C212.307 44.5914 211.511 42.206 211.104 40.5216L207.51 27C206.938 25.0617 206.069 23.1736 205.93 21.1466Z"/>
	<defs>
		<linearGradient id="gradient_5" gradientUnits="userSpaceOnUse" x1="397.93933" y1="405.8848" x2="83.351639" y2="330.02777">
			<stop offset="0" stop-color="#470000"/>
			<stop offset="1" stop-color="#C80000"/>
		</linearGradient>
	</defs>
	<path fill="url(#gradient_5)" transform="scale(0.961076 0.961076)" d="M172.379 230.664C173.424 230.265 174.062 229.627 175.227 229.327L175.793 230.025L194.578 247.064C198.503 251.158 213.458 268.056 218.232 269.559C220.992 272.076 228.238 270.88 231.857 270.883L276.293 270.894C280.412 270.918 284.693 271.19 288.795 270.942L289.51 270.874C299.702 271.421 320.013 241.37 329.913 234.744C332.944 232.716 334.095 234.35 336.95 234.869L338.652 235.216C337.939 239.056 339.559 238.002 341.744 240.372L349.592 246.712C351.357 247.663 358.168 251.823 359.486 253.066C360.006 254.253 360.335 254.633 359.899 255.903L358.939 257.893C359.307 262.379 371.166 266.975 374.895 268.774L388.17 275.632C393.973 278.871 404.654 286.447 402.375 294.474L402.118 295.392C403.675 296.182 405.375 296.91 406.842 297.847L406.437 299.125C406.914 299.765 406.94 300.424 406.8 301.188L406.712 301.625C407.462 302.81 408.924 304.075 410.027 304.949C416.096 309.754 416.364 322.092 415.09 329.375L414.623 332.125C414.319 333.771 414.074 336.238 414.114 337.875L413.873 338.25C413.884 339.107 413.834 339.582 413.623 340.375L413.377 342.033C413.385 342.732 413.258 343.006 413.123 343.625L412.874 345.156C412.859 345.687 412.783 345.687 412.623 346.125L412.48 346.749C412.158 348.088 411.615 349.4 411.429 350.765L401.11 375.293L355.486 464.816C351.754 472.303 346.787 484.665 340.125 489.914L339.195 491.27L327.987 492.962C314.549 495.065 305.758 495.283 292.066 495.297L201.657 495.112C195.208 494.77 188.453 493.833 182.101 492.651L175.821 491.33C167.56 484.808 166.799 481.901 161.827 472.594L117.782 384.834L103.11 353.344C101.216 348.882 99.1964 344.43 97.6109 339.849C96.9542 337.891 96.6434 335.969 96.39 333.93C94.1529 330.455 96.9591 304.548 95.1143 301.437C98.4537 297.906 96.9532 293.641 96.7685 289L96.5723 279.27C96.5251 274.957 95.8987 275.078 99.8868 273.139L155.765 248.686C157.062 247.532 161.379 245.055 162.912 244.341L167 242.773C168.311 242.232 168.952 241.786 169.854 240.673C171.19 239.023 172.557 235.599 172.7 233.495L172.379 230.664ZM241.448 346.332C237.217 347.669 233.158 349.007 229.19 351.024C206.132 362.745 193.599 389.791 201.575 414.736L204.346 422.234C220.634 459.611 262.749 470.355 294.249 442.469C302.368 435.281 310.022 424.408 312.186 413.736C318.762 381.311 294.182 346.921 260.876 344.542C254.345 344.075 247.814 344.944 241.448 346.332ZM392.128 305.328C378.402 309.037 381.097 329.513 398.088 327.5C402.318 326.72 405.924 323.515 406.79 319.25L406.856 318.936C408.599 310.225 400.43 304.604 392.128 305.328Z"/>
	<path transform="scale(0.961076 0.961076)" d="M192.544 308.593C197.786 310.104 202.799 308.774 207.969 311.091L200.177 311.072C196.769 311.095 194.66 311.677 192.544 308.593Z"/>
	<defs>
		<linearGradient id="gradient_6" gradientUnits="userSpaceOnUse" x1="130.22894" y1="268.92892" x2="153.05806" y2="267.86591">
			<stop offset="0" stop-color="#170000"/>
			<stop offset="1" stop-color="#380000"/>
		</linearGradient>
	</defs>
	<path fill="url(#gradient_6)" transform="scale(0.961076 0.961076)" d="M154.823 260.375L155.398 260.625C150.91 264.103 136.447 274.436 131.125 276.241C125.862 273.966 140.596 266.158 141.699 265.575C146.153 263.221 150.012 261.802 154.823 260.375Z"/>
	<path fill="white" transform="scale(0.961076 0.961076)" d="M116.396 306.303C130.762 305.369 131.579 325.042 117.303 326.713C103.173 326.229 101.668 308.927 116.396 306.303Z"/>
	<path fill="#FF0C01" transform="scale(0.961076 0.961076)" d="M96.39 333.93C105.01 336.197 117.063 365.584 120.925 373.305L132.345 395.429L161.399 454.5C162.704 457.101 163.94 460.475 165.638 462.782C167.563 468.341 173.933 479.391 176.966 484.289C178.703 487.094 180.891 489.557 182.101 492.651L175.821 491.33C167.56 484.808 166.799 481.901 161.827 472.594L117.782 384.834L103.11 353.344C101.216 348.882 99.1964 344.43 97.6109 339.849C96.9542 337.891 96.6434 335.969 96.39 333.93Z"/>
	<path fill="#011B1F" transform="scale(0.961076 0.961076)" d="M172.379 230.664C173.424 230.265 174.062 229.627 175.227 229.327L175.793 230.025L194.578 247.064C198.503 251.158 213.458 268.056 218.232 269.559C220.992 272.076 228.238 270.88 231.857 270.883L276.293 270.894C280.412 270.918 284.693 271.19 288.795 270.942L289.51 270.874C299.702 271.421 320.013 241.37 329.913 234.744C332.944 232.716 334.095 234.35 336.95 234.869L338.652 235.216C337.939 239.056 339.559 238.002 341.744 240.372L349.592 246.712C351.357 247.663 358.168 251.823 359.486 253.066C360.006 254.253 360.335 254.633 359.899 255.903L358.939 257.893C357.081 259.252 355.544 260.577 354.249 262.5L319.019 310.917L248.113 310.987L243.153 310.964L225.643 310.973L207.969 310.98C202.799 308.774 197.786 310.104 192.544 308.65L151.424 252.853C152.774 251.189 154.129 250.498 155.875 249.383L155.765 248.686C157.062 247.532 161.379 245.055 162.912 244.341L167 242.773C168.311 242.232 168.952 241.786 169.854 240.673C171.19 239.023 172.557 235.599 172.7 233.495L172.379 230.664Z"/>
	<path transform="scale(0.961076 0.961076)" d="M225.643 310.973C228.898 309.853 239.596 309.606 243.153 310.854L225.643 310.973Z"/>
	<path fill="#1F9C95" transform="scale(0.961076 0.961076)" d="M162.912 244.341L167 242.773C168.311 242.232 168.952 241.786 169.854 240.673C170.473 241.036 170.861 241.286 171.32 241.857C174.722 246.044 179.049 249.873 182.957 253.587L220.47 288.775C220.817 290.985 220.684 293.242 220.64 295.471C213.571 296.792 211.429 293.329 206.818 288.527L164.54 245.835L162.912 244.341Z"/>
	<path fill="#51BAB7" transform="scale(0.961076 0.961076)" d="M162.912 244.341L167 242.773C168.311 242.232 168.952 241.786 169.854 240.673C170.473 241.036 170.861 241.286 171.32 241.857C170.566 242.585 165.258 245.58 164.54 245.835L162.912 244.341Z"/>
	<path fill="#0C7275" transform="scale(0.961076 0.961076)" d="M341.744 240.372L349.592 246.712C344.944 249.744 341.167 253.768 337.24 257.657L319.685 275.48C314.427 280.772 308.237 285.723 303.638 291.566C301.034 294.874 300.967 295.073 296.627 295.125L241.825 295.152C234.83 295.152 227.614 294.836 220.639 295.229C220.684 293.242 220.817 290.985 220.47 288.775C221.946 289.379 223.695 289.223 225.233 289.229L278.84 289.21C292.247 289.194 290.604 291.946 298.305 282.759C299.911 280.843 301.73 279.113 303.534 277.387L319.966 261.928C327.432 255.116 335.328 248.208 341.744 240.372Z"/>
	<defs>
		<linearGradient id="gradient_7" gradientUnits="userSpaceOnUse" x1="255.80696" y1="230.19951" x2="256.20801" y2="288.70593">
			<stop offset="0" stop-color="#100404"/>
			<stop offset="1" stop-color="#021218"/>
		</linearGradient>
	</defs>
	<path fill="url(#gradient_7)" transform="scale(0.961076 0.961076)" d="M172.379 230.664C173.424 230.265 174.062 229.627 175.227 229.327L175.793 230.025L194.578 247.064C198.503 251.158 213.458 268.056 218.232 269.559C220.992 272.076 228.238 270.88 231.857 270.883L276.293 270.894C280.412 270.918 284.693 271.19 288.795 270.942L289.51 270.874C299.702 271.421 320.013 241.37 329.913 234.744C332.944 232.716 334.095 234.35 336.95 234.869L338.652 235.216C337.939 239.056 339.559 238.002 341.744 240.372C335.328 248.208 327.432 255.116 319.966 261.928L303.534 277.387C301.73 279.113 299.911 280.843 298.305 282.759C290.604 291.946 292.247 289.194 278.84 289.21L225.233 289.229C223.695 289.223 221.946 289.379 220.47 288.904L182.957 253.587C179.049 249.873 174.722 246.044 171.32 241.857C170.861 241.286 170.473 241.036 169.854 240.673C171.19 239.023 172.557 235.599 172.7 233.495L172.379 230.664Z"/>
	<path fill="#4F0103" transform="scale(0.961076 0.961076)" d="M172.379 230.664C173.424 230.265 174.062 229.627 175.227 229.327L175.793 230.025C174.695 230.909 174.687 232.843 173.148 233.384L172.7 233.495L172.379 230.664Z"/>
	<defs>
		<linearGradient id="gradient_8" gradientUnits="userSpaceOnUse" x1="311.71915" y1="391.81573" x2="200.57364" y2="410.42596">
			<stop offset="0" stop-color="#CA0100"/>
			<stop offset="1" stop-color="#F10400"/>
		</linearGradient>
	</defs>
	<path fill="url(#gradient_8)" transform="scale(0.961076 0.961076)" d="M241.448 346.332C247.814 344.944 254.345 344.075 260.876 344.542C294.182 346.921 318.762 381.311 312.186 413.736C310.022 424.408 302.368 435.281 294.249 442.469C262.749 470.355 220.634 459.611 204.346 422.234L201.575 414.736C193.599 389.791 206.132 362.745 229.19 351.024C233.158 349.007 237.217 347.669 241.448 346.332ZM252.162 349.852C237.47 351.466 225.062 357.591 215.654 369.255C191.046 399.766 210.009 446.979 249.25 452.031C253.046 452.52 256.994 452.431 260.812 452.209C274.954 450.582 287.519 444.185 296.45 433.008C323.989 398.541 297.206 346.005 252.173 349.848L252.162 349.852Z"/>
	<path transform="scale(0.961076 0.961076)" d="M252.162 349.852L252.173 349.848C297.206 346.005 323.989 398.541 296.45 433.008C287.519 444.185 274.954 450.582 260.812 452.209C256.994 452.431 253.046 452.52 249.25 452.031C210.009 446.979 191.046 399.766 215.654 369.255C225.062 357.591 237.47 351.466 252.162 349.852ZM251.293 362.648C226.834 365.39 211.322 389.571 218.375 412.877C224.055 431.647 241.494 442.85 260.946 440.426C280.857 437.812 295.547 420.654 295.497 400.625C295.438 377.24 274.073 360.25 251.293 362.648Z"/>
</svg>
