<svg width="34" height="34" viewBox="0 0 34 34" fill="none" xmlns="http://www.w3.org/2000/svg">
<path d="M6.41701 26.083C8.05567 24.9723 9.73601 24.1253 11.458 23.542C13.1807 22.9587 15.028 22.667 17 22.667C18.972 22.667 20.826 22.9587 22.562 23.542C24.2987 24.1253 25.9863 24.9723 27.625 26.083C28.7637 24.6943 29.59 23.25 30.104 21.75C30.618 20.25 30.875 18.6667 30.875 17C30.875 13.0833 29.5417 9.79167 26.875 7.125C24.2083 4.45833 20.9167 3.125 17 3.125C13.0833 3.125 9.79167 4.45833 7.12501 7.125C4.45834 9.79167 3.12501 13.0833 3.12501 17C3.12501 18.6667 3.38901 20.25 3.91701 21.75C4.44434 23.25 5.27767 24.6943 6.41701 26.083ZM17 18.375C15.3887 18.375 14.0277 17.8193 12.917 16.708C11.8057 15.5973 11.25 14.2363 11.25 12.625C11.25 11.0137 11.8057 9.65267 12.917 8.542C14.0277 7.43067 15.3887 6.875 17 6.875C18.6113 6.875 19.9723 7.43067 21.083 8.542C22.1943 9.65267 22.75 11.0137 22.75 12.625C22.75 14.2637 22.1943 15.6317 21.083 16.729C19.9723 17.8263 18.6113 18.375 17 18.375ZM17 33.667C14.6947 33.667 12.521 33.2293 10.479 32.354C8.43767 31.4793 6.66701 30.285 5.16701 28.771C3.66701 27.257 2.48634 25.493 1.62501 23.479C0.763675 21.465 0.333008 19.3053 0.333008 17C0.333008 14.6947 0.770674 12.528 1.64601 10.5C2.52067 8.472 3.71501 6.708 5.22901 5.208C6.74301 3.708 8.50701 2.52067 10.521 1.646C12.535 0.770667 14.6947 0.333 17 0.333C19.3053 0.333 21.472 0.770667 23.5 1.646C25.528 2.52067 27.292 3.708 28.792 5.208C30.292 6.708 31.4793 8.472 32.354 10.5C33.2293 12.528 33.667 14.6947 33.667 17C33.667 19.3053 33.2293 21.465 32.354 23.479C31.4793 25.493 30.292 27.257 28.792 28.771C27.292 30.285 25.528 31.4793 23.5 32.354C21.472 33.2293 19.3053 33.667 17 33.667Z" fill="#1C1B1F"/>
</svg>
